<svg
    width="686"
    height="686"
    viewBox="0 0 686 686"
    fill="none"
    xmlns="http://www.w3.org/2000/svg"
  >
    <rect width="686" height="686" fill="#CB0001" />
    <path
      d="M450.854 342.973C450.845 342.981 450.856 342.996 450.867 342.99C479.108 326.591 498.043 296.557 498.043 262.152C498.111 211.967 457.863 171.122 407.205 168.273C407.133 168.269 407.076 168.209 407.076 168.136V168.136C407.076 168.061 407.015 168 406.939 168H267C229.288 168 210.431 168 198.716 179.716C187 191.431 187 210.288 187 248V438C187 475.712 187 494.569 198.716 506.284C210.431 518 229.288 518 267 518H406.939C407.015 518 407.076 517.939 407.076 517.864V517.864C407.076 517.791 407.133 517.731 407.205 517.727C457.863 514.878 498.111 474.033 498.111 423.848C498.111 389.415 479.078 359.361 450.867 342.971C450.863 342.969 450.857 342.969 450.854 342.973V342.973Z"
      fill="#FFEEE9"
    />
    <path
      d="M224.5 281.785V191C224.5 172.144 224.5 162.716 230.358 156.858C236.216 151 245.644 151 264.5 151H313.491C332.347 151 341.775 151 347.633 156.858C353.491 162.716 353.491 172.144 353.491 191V281.584C353.491 296.97 353.491 304.663 348.494 307.55C343.497 310.438 336.832 306.595 323.502 298.911L299.303 284.961C294.455 282.167 292.031 280.769 289.369 280.762C286.706 280.756 284.275 282.141 279.413 284.911L254.401 299.162C241.101 306.74 234.451 310.529 229.475 307.638C224.5 304.746 224.5 297.093 224.5 281.785Z"
      fill="#FF652F"
    />
  </svg>