<?xml version="1.0" standalone="no"?>
<!DOCTYPE svg PUBLIC "-//W3C//DTD SVG 20010904//EN"
 "http://www.w3.org/TR/2001/REC-SVG-20010904/DTD/svg10.dtd">
<svg version="1.0" xmlns="http://www.w3.org/2000/svg"
 width="512.000000pt" height="512.000000pt" viewBox="0 0 512.000000 512.000000"
 preserveAspectRatio="xMidYMid meet">

<g transform="translate(0.000000,512.000000) scale(0.100000,-0.100000)"
fill="#CB0001" stroke="none">
<path d="M2395 4674 c-16 -2 -72 -9 -124 -15 -201 -23 -436 -95 -646 -198
-552 -270 -971 -786 -1119 -1380 -46 -184 -60 -302 -61 -516 0 -217 10 -309
55 -500 178 -756 784 -1371 1539 -1559 978 -245 1987 225 2426 1129 99 203
154 377 191 610 23 137 25 464 5 605 -99 700 -542 1308 -1176 1615 -292 142
-549 203 -880 210 -99 2 -193 2 -210 -1z m312 -934 c306 -40 513 -268 513
-565 0 -96 -18 -172 -61 -257 -36 -70 -121 -165 -193 -214 l-49 -33 54 -24
c118 -53 230 -160 290 -279 162 -321 -21 -716 -381 -825 -48 -14 -133 -17
-647 -20 l-593 -4 0 1115 0 1116 498 0 c273 0 529 -5 569 -10z m1166 -1596
c60 -20 139 -92 168 -152 17 -35 23 -65 24 -117 0 -117 -58 -209 -168 -267
-65 -35 -173 -32 -250 6 -64 31 -126 100 -148 163 -18 52 -15 160 5 206 32 72
113 145 186 168 43 13 135 10 183 -7z"/>
</g>
</svg>
